<svg viewBox="0 0 1184 602" xmlns="http://www.w3.org/2000/svg" fill-rule="evenodd" clip-rule="evenodd" stroke-linejoin="round" stroke-miterlimit="2"><path fill="none" d="M0 0h1184v602H0z"/><clipPath id="a"><path d="M0 0h1184v602H0z"/></clipPath><g clip-path="url(#a)"><path d="M1172.396 510.37c2.831.39 4.52.016 5.697-.474-10.39-.603 3.009.197-5.697.475zM1131 509.768c-.448.07-.915.112-1.367.17.656.008 1.209-.02 1.367-.17z" fill="#c60551" fill-rule="nonzero"/><path d="M1044.844 493.195c5.793-.212 11.35-.475 16.326-.888 5.194-.27 5.21.405 5.496.888h-21.822zm81.351 14.974c.035-.023.136-.03.178-.058h3.615c-.892.081-1.885.105-3.793.058zm-25.985-.058h5.774a51.418 51.418 0 01-5.774 0zm-745.29-16.615c1.826.8-3.234-.043-4.087.59l5.747.943c-1.263.027-1.966.085-2.472.166h-25.487c2.742-.456 5.349-.92 7.971-1.27 3.403.258 14.511-.36 18.327-.43zm46.362 1.7h-6.357c.081-.078.135-.148.116-.233 3.6-.085 5.303.027 6.241.232zm68.216 0h-.567c.197-.028.428-.043.618-.078-.031.027-.027.05-.05.077zm11.456-.279l-.958.278h-6.11c.664-.402 1.808-.703 7.068-.278zm39.303.278h-4.137c1.325-.12 2.658-.243 3.851-.44.305.154.355.301.286.44zm11.552-.015c.058 0 .14.015.197.015h-4.391c1.143-.116 2.468-.147 4.194-.015zm22.34.015h-5.709c2.063-.062 3.913-.116 5.087-.197.143.077.401.128.622.197zm119.36-.131c.186.05.298.089.449.131h-5.246c1.592-.062 3.206-.077 4.797-.131zm99.382-.487c.648.178.807.398.787.618h-2.583c.838-.181 1.51-.378 1.796-.618zm-462.45.618l.896-.166c-.081.05-.089.097-.016.166h-.88zm873.272 0l-.112-5.705-5.508.082c-47.298.706-90.52-.66-137.98-2.314-17.698.282-40.856.807-57.128.236-68.533.336-137.371-2.403-207.34-1.232 3.696.444-.205 1.127-3.79 1.32l-.896-.374-5.465.865c-5.237.097-3.028-1.027 1.375-1.178-27.85.02-52.794.394-79.868.135-1.789 1.302-14.125.062-15.06 1.437-1.259-.251-.085-.309.684-.591-18.84.688-20.13.726-37.279-.946-73.233-1.09-143.84-.162-215.946-.56l-219.49 1.769c-11.445 2.07-27.168 1.108-40.737 2.9l.87-.633c-11.576.911-14.515-.182-29.184-.966-.155.734-5.628.213-3.534 1.418-5.071 1.023-9.162-1.719-16.485-1.17-.25-.406.182.726-1.375.34-18.921 1.467 3.6-.669-20.381-1.843-27.65.379-55.888 1.298-82.99 1.174l-5.762-.027-.077 5.863-.182 14.916L0 513.997l6.095.14 2.047.042c-1.997.054-2.924-.911.324-.927 3.11 1.954 10.884-.537 16.565.247-.448.406-3.155.533-4.646.7 14.623.814 26.85-.39 40.69.482 13.14-.826 28.41.888 37.205-.139-2.093.788 5.882.587 8.717.973 9.548-2.344 25.673.8 37.635-.745l-.41.405c35.75-.177 74.67.36 111.984-.714 20.976-.263 44.63 1.838 67.71.8 4.241-.31.87-.815 4.307-1.028 5.805.046-.066.718 2.194.993 11.359-.947 26.344.197 40.592.162 1.661-.375 5.655-.471 4.315-1.027 15.808 1.58 37.437-.553 53.67.618-5.658-2.02 9.54-1.094 15.222-1.56 3.21.088 3.507.613 2.533 1 12.147-.24 18.5-.302 32.985.266 6.7-.224 8.504-1.32 16.557-1.008 5.01 1.402 16.797.05 24.688.572-2.004-1.21 8.053-2.171 15.917-1.646l-2.426 1.692c25.078-1.093 61.214.846 90.598-1.282l2.186.988c30.304-1.154 60.079.081 89.231-1.842 7.876.533 20.46.87 28.21.87 10.61-.85 14.403-.754 21.634-2.121 3.974-.1 6.384.699 7.91 1.039 13.344.266 26.124 1.664 36.834.07l.414.845c10.586-.861 25.939-1.908 37.889-.946 3.318-.75 15.283-1.04 9.857-2.028 4.723-.19 3.043 1.425 7.855.53l-4.518 1.22c26.831.309 49.483-.325 75.396-.978 7.523 1.468 24.722-.162 39.407.653 8.632-.8 23.572.344 29.987-1.464l.425.846c11.533.097 27.063.097 42.16.522 8.81.224 8.81-1.028 15.728-1.449l.413.846c7.11-.49 9.355-1.653 11.92-2.503h3.027c3.74.213 5.025-.131 9.93.352-5.662.471-10.497 1.386-14.286 2.541 9.323.36 18.693-1.796 24.437-.49 7.624.309 13.545-.008 14.603-.993.417.294 4.635.572.92.993 5.77-.031 9.5-.128 12.996-.576-1.105-.008-2.634-.139-3.886-.108 2.534-.765 7.331-.823 7.516-1.719h7.393c.42.75-6.732 1.26-2.626 1.738l12.703-1.738 32.775-1.247-2.425-17.238-103.132 3.57c28.593-.982 60.932 1.293 86.118-1.565 5.608-.205 10.243-.587 14.024-1.047l2.256-.274.355 2.885c1.333 11.058 3.295 14.916 3.295 14.916l-.286-14.916z" fill="#c60551" fill-rule="nonzero"/><path d="M1158.82 508.528c-4.862.912 1.236 1.287 3.102 1.97.633-.606-2.5-1.32-3.102-1.97z" fill="#c60551" fill-rule="nonzero"/><path d="M340.258 442.506v-1.02 1.02zm-21.857 1.008v-200.14h22.876v200.14h-22.876zm293.466 0v-200.14h105.441v20.052h-82.61v69.414h67.66v20.018h-67.66v70.622h93.444v20.034H611.867zm-48.04 3.341v-1.027 1.027zm1.005 1.008h-7.033l-97.844-112.115c-16.295-18.724-33.691-39.396-47.225-55.66.607 17.697.607 35.707.607 53.103v110.323h-22.865v-200.14h16.055l92.248 105.63c13.19 14.997 30.817 35.58 43.783 51.546-.583-17.114-.583-34.413-.583-50.527v-106.65h22.857v204.49z" fill="#231f20" fill-rule="nonzero"/><path d="M778.298 212.664c19.195-40.234 23.332-82.715 23.521-84.492V81.925c-.556-.773-1.827-2.712-1.827-2.712v-6.562c0-1.834 1.12-3.364 2.913-4.48.907-1.217 2.294-2.132 4.074-2.754 1.827-2.448 5.531-4.217 9.9-4.217h13.228c4.36 0 8.076 1.769 9.895 4.217 1.514.56 2.932 1.34 3.789 2.399.1.019.599.131.599.131 1.182.769 2.557 2.244 2.557 4.693v6.573s-1.244 1.94-1.793 2.712v46.317c.209 1.707 4.342 44.204 23.541 84.422 22.131 46.421 22.826 88.876 22.826 93.56V432.11l-.46 4.932-.007.19c-.568 2.888-4.542 7.369-13.703 10.296l-3.7 1.213c-9.676 3.29-18.922 6.365-50.203 6.547l-2.248.019c-28.878 0-38.264-3.237-47.36-6.338.279.089-4.271-1.476-4.271-1.476-9.15-2.908-13.047-7.326-13.692-10.443l-.02-.182-.37-4.758V306.225c0-4.685.61-47.14 22.81-93.561z" fill="#c60551" fill-rule="nonzero"/><path d="M934.698 420.286h-2.927v7.28h2.927c2.688 0 4.237-1.502 4.237-3.672 0-2.132-1.549-3.608-4.237-3.608zm7.238 20.795l-6.89-10h-3.275v9.942h-3.778v-24.132h7.169c4.11 0 7.608 2.824 7.608 7.003 0 2.846-1.61 5.07-3.835 6.237l6.176 8.764-3.175 2.186zm-7.114-28.755c-9.393 0-16.357 6.805-16.357 16.515 0 9.85 6.964 16.47 16.357 16.47 9.323 0 16.407-6.62 16.407-16.47 0-9.71-7.084-16.515-16.407-16.515zm0 36.371c-11.166 0-19.953-8.23-19.953-19.856 0-11.618 8.787-19.798 19.953-19.798 11.247 0 20.022 8.18 20.022 19.798 0 11.626-8.775 19.856-20.022 19.856zM686.328 559.457c-.915-2.16-1.946-5.241-2.761-8.007h-.228c-.742 2.766-1.873 5.848-2.812 8.007l-6.48 16.102h18.782l-6.5-16.102zm17.018 41.099l-7.091-17.03h-25.588l-7.165 17.03h-9.814l28.083-66.783h3.642l28.071 66.783h-10.138zM783.384 602.031l-30.84-33.772c-4.925-5.369-10.63-11.992-15.179-17.35l-.224.105c.224 6.017.224 11.552.224 16.546v32.996h-9.957v-65.818h6.867l28.303 30.98c3.778 4.21 9.795 10.81 13.827 15.773l.213-.112c-.213-5.048-.213-10.733-.213-15.518v-31.123h9.953v67.293h-2.974zM823.421 543.212h-8.574v48.905h8.574c14.847 0 27.102-7.768 27.102-24.453 0-16.754-12.255-24.452-27.102-24.452zm1.73 57.344h-20.207v-65.818h20.207c18.377 0 35.623 11.676 35.623 32.926s-17.246 32.892-35.623 32.892zM970.39 600.556l-2.642-29.69c-.452-4.457-.815-10.154-1.035-14.959h-.22c-2.063 4.597-5.253 10.985-7.427 15.214l-15.295 29.956h-3.677l-15.515-29.956c-2.275-4.28-5.029-10.177-7.308-15.001h-.224c-.197 5.04-.687 10.772-1.011 14.746l-2.557 29.69h-8.876l5.69-65.818h6.167l17.508 33.838c2.72 5.148 6.126 11.884 8.296 16.92h.224c2.055-5.036 5.26-11.416 8.015-16.92l17.342-33.838h6.18l5.92 65.818h-9.555zM1028.695 542.088c-12.2 0-24.776 9.142-24.776 25.472 0 16.299 12.575 25.584 24.776 25.584 11.977 0 24.765-9.285 24.765-25.584 0-16.33-12.788-25.472-24.765-25.472zm0 59.727c-17.57 0-34.853-12.9-34.853-34.255 0-21.146 17.284-34.166 34.853-34.166 17.566 0 34.85 13.02 34.85 34.166 0 21.355-17.284 34.255-34.85 34.255zM1098.653 543.212h-9.23v20.003h9.23c5.852 0 11.32-3.078 11.32-10.03 0-6.771-5.468-9.973-11.32-9.973zm20.818 57.344l-20.737-28.883h-9.312v28.883h-9.914v-65.818h20.872c9.27 0 19.786 5.987 19.786 18.446 0 8.783-5.156 14.376-11.54 16.925l22.478 30.447h-11.633zM1141.923 600.556v-65.818h35.514v8.563h-25.484v19.914h21.355v8.57h-21.355v20.216h29.13v8.555h-39.16z" fill="#231f20" fill-rule="nonzero"/><g><path d="M446.186 514.623c.25-.058.39-.135.564-.205-1.38.035-2.785.058-4.338.09l3.774.115z" fill="#c60551" fill-rule="nonzero"/></g><g><path d="M61.28 514.685c-.07-.008-.14 0-.21-.008-1.088.077-2.197.124-3.251.228 1.263.046 1.993-.039 3.46-.22z" fill="#c60551" fill-rule="nonzero"/></g><g><path d="M205.904 446.612h-7.652l-39.994-116.167c-5.983-17.411-11.71-34.842-17.963-55.552-6.265 20.71-11.99 38.14-17.972 55.552L82.646 446.612h-8.018L4.41 243.365h23.235l36.248 104.692c5.33 15.45 11.294 32.25 15.832 49.45 4.859-16.879 10.49-33.7 15.82-49.45l35.915-104.692h19.799l35.935 104.692c5.654 16.021 10.992 33.17 15.545 49.604 4.794-16.176 10.456-33.583 16.044-49.604l35.982-104.692h20.288v1.024-1.024h1.433l-70.583 203.247z" fill="#c60551" fill-rule="nonzero"/></g><g><path d="M93.468 111.576c.123-.726.123-1.541.123-2.561-.027-13.101-10.378-28.875-30.705-28.89-17.99-.031-33.992 15.383-37.33 31.45h67.912zm229.205 0c.123-.726.139-1.541.139-2.561-.023-13.101-10.316-28.875-30.644-28.89-17.986-.031-34.007 15.383-37.321 31.45h67.826zm704.389-8.15c0 13.468 11.266 24.062 26.61 24.062 14.075 0 26.09-10.606 26.122-24.062-.031-12.985-11.317-23.83-26.121-23.846-15.345.016-26.569 10.861-26.611 23.846zM360.473 183.18V67.391h16.535l.633 19.431c5.867-12.61 20.154-20.988 39.13-20.98h.528l3.434 14.194-.71.17v-.75.75l.71-.17.22.823h-3.414c-21.397.03-39.716 14.754-39.782 45.594v56.726h-17.284zm394.253-.645v-.649.649zm-16.673.645v-76.192c-.035-15.596-10.68-26.812-30.899-26.862-19.462.035-31.88 11.328-31.914 26.862v76.192h-17.284V1.921h17.284v77.022c6.207-7.609 17.388-14.128 35.695-14.128 25.31.05 44.37 15.252 44.432 40.635v77.729h-17.314zm243.823-.645v-.649.649zm-16.569.645v-76.192c-.062-15.596-10.698-26.812-30.898-26.862-19.47.035-31.9 11.328-31.918 26.862v76.192h-17.3V67.391h15.735l.448 12.572c6.412-8.304 17.643-15.148 36.781-15.148 25.271.05 44.401 15.252 44.448 40.635v77.729h-17.296zm-384.922-29.724V81.85h-23.772v-14.46h23.772V42.896l17.23-9.084-.015 33.579h40.322v.645-.645h.842l-3.63 14.46h-37.519V154c.054 10.765 7.188 15.67 16.276 15.72 5.233 0 9.718-.707 12.842-2.21l1.313-.571-4.225 16.647-.37.115c-2.407.765-6.215 1.314-10.85 1.314-17.929-.035-32.216-10.962-32.216-31.56zM209.287 67.39h16.681l-48.877 118.094h-6.686L121.524 67.39h17.7l24.685 59.062c3.588 8.942 7.508 18.373 10.494 27.851 3.205-9.42 6.867-18.407 10.73-27.85l24.154-59.063zM6.091 125.403C6.145 88.15 34.487 64.88 62.148 64.815c31.66.05 48.62 22.05 48.666 43.404 0 2.8.011 5.605-.68 8.358l-9.834 9.525H24.078c-.027.602-.05 1.27-.05 1.877 0 21.722 18.264 42.284 44.922 42.284 13.572 0 24.502-3.244 35.483-11.258l1.56-1.132-5.318 19.953c-8.995 5.148-19.227 7.921-33.502 7.921-33.18-.061-61.009-24.838-61.082-60.344zm229.282 0c.058-37.252 28.326-60.523 56.046-60.588 31.667.05 48.626 22.05 48.677 43.404 0 2.8.019 5.605-.676 8.358l-9.822 9.525h-76.246c-.02.602-.046 1.27-.046 1.888 0 21.726 18.26 42.273 44.915 42.273 13.572 0 24.44-3.244 35.486-11.258l1.542-1.093-5.311 19.914c-8.98 5.148-19.211 7.921-33.467 7.921-33.193-.061-61.032-24.838-61.098-60.344zm782.81 76.068c.042 12.923 12.73 25.592 35.49 25.615 22.274 0 34.695-11.757 34.73-22.568-.035-10.513-7.018-17.527-19.79-21.544l-22.73-7.11c-16.133.317-27.69 11.127-27.7 25.607zm-15.763 0c.035-18.423 12.877-31.37 26.356-35.217l-12.9-11.73v-.262c.047-7.798 7.462-15.422 14.878-18.323-10.954-5.967-20.003-17.69-20.003-32.513.062-22.363 17.894-38.561 42.663-38.611 6.16 0 10.749 1.042 14.619 2.062 3.932 1.252 8.447 1.808 13.962 1.808 6.694 0 12.947-1.816 17.126-4.048l.753-.351 3.634 14.437-.436.27c-2.73 1.7-9.563 3.29-14.492 3.55 4.199 4.816 7.501 12.29 7.501 20.883-.054 20.891-16.561 38.836-42.667 38.886-12.556.004-19.022 4.11-19.041 8.138.02 0 1.1 1.7 2.97 3.26 1.896 1.595 4.392 3.348 6.948 4.194l29.543 10.104c19.59 6.55 31.088 17.249 31.042 36.51-.008 21.29-20.911 37.075-50.94 37.105-30.598-.05-51.516-17.16-51.516-40.152zM526.784 67.39h16.886l-44.887 105.553c-17.485 41.261-36.101 60.963-59.04 69.093l-.432.174-10.892-11.19 1.066-.351c21.436-6.763 37.14-23.348 52.002-58.248L436.982 67.391h18.164l24.665 57.996c3.658 8.775 7.562 18.095 11 27.79 3.441-9.231 7.13-18.227 11.007-27.26l24.966-58.526z" fill="#231f20" fill-rule="nonzero"/></g><g><path d="M849.55 12.01c.911-3.4-5.674-8.224-14.704-10.657-8.706-2.283-16.507-1.61-17.921 1.514a5.253 5.253 0 01-.077.236c-.016.058-.062.108-.074.162v.066c-.007.038-.023.038-.034.038l-9.131 33.996c-.78 2.916.807 5.883 3.627 6.655l22.741 6.095c2.777.726 5.627-1.043 6.466-3.96l9.064-34v-.072c0-.035.043-.05.043-.074z" fill="#c60551" fill-rule="nonzero"/></g></g></svg>
