<?xml version="1.0" encoding="utf-8"?>
<!-- Generator: Adobe Illustrator 25.2.3, SVG Export Plug-In . SVG Version: 6.00 Build 0)  -->
<svg version="1.1" id="Layer_1" xmlns="http://www.w3.org/2000/svg" xmlns:xlink="http://www.w3.org/1999/xlink" x="0px" y="0px"
	 viewBox="0 0 300 47" style="enable-background:new 0 0 300 47;" xml:space="preserve">
<style type="text/css">
	.st0{fill:#48A548;}
	.st1{fill:#D0D2D3;}
	.st2{fill:#FFFFFF;}
	.st3{fill:#404041;}
</style>
<g>
	<path class="st0" d="M136.5407,26.42444c-0.52235,2.61111-3.23854,6.05778-7.7307,6.05778c0,0,0,6.99778,0,8.46
		c8.14856-0.41778,13.58095-5.64,14.7301-10.96667c0.73128-4.38667,2.29831-8.14667,8.3575-9.08667c0.52234,0,0.73128,0,0.73128,0
		V12.22c0,0-0.20894,0-0.73128,0C143.54012,12.63778,137.89879,18.69555,136.5407,26.42444"/>
	<polygon class="st0" points="129.43681,12.63778 122.95975,25.17111 117.63185,12.63778 108.75201,12.63778 118.04972,34.04889 
		110.31904,47 119.61675,47 137.89879,12.63778 	"/>
	<path class="st0" d="M93.29062,21.20222c2.29832-1.46222,5.32791-1.46222,7.20835-0.20889
		c-0.94022,0.52222-9.82007,6.05778-9.82007,6.05778C90.05209,24.96222,91.41018,22.24667,93.29062,21.20222 M103.31963,30.08
		h-0.52235c0,0-0.94022,1.88-2.82066,2.61111c-2.82065,1.35778-5.43237,0.20889-5.85025,0c-0.20893-0.20889,0-0.20889,0-0.41777
		c0.20894,0,1.14915-0.73111,1.14915-0.73111s14.7301-8.87778,15.25244-9.29556C110.11009,19.63556,104.67772,11.28,95.58894,12.22
		c-10.76029,1.14889-13.0586,10.54889-13.0586,14.30889c0,4.38667,3.44747,13.99555,14.52116,13.99555
		c9.61112,0,13.37201-9.08667,13.37201-10.75778h-7.20835"/>
	<path class="st0" d="M12.43178,20.36667C11.28263,27.36444,6.05919,32.06445,0,31.75111c0,2.08889,0,7.52,0,10.02667
		C14.20776,42.19556,20.37141,30.81111,21.52057,24.44c1.14916-6.37111,4.7011-12.63778,13.58094-14.51778
		c0.52234-0.20889,1.35809-0.20889,1.35809-0.20889V0c0,0-0.41788,0-1.35809,0C23.60994,1.14889,14.31222,9.29556,12.43178,20.36667
		"/>
	<path class="st0" d="M38.54898,13.05556c-7.41728,0-13.372,6.05778-13.58094,13.57778l0,0l0,0v0.20889l0,0
		c0.41788,7.93778,6.3726,13.99555,13.58094,13.99555c7.52176,0,13.58094-6.26667,13.58094-13.99556
		S46.07073,13.05556,38.54898,13.05556 M38.86239,32.48222c-3.0296,0-5.43238-2.50667-5.43238-5.43111
		s1.88044-6.05778,5.43238-6.05778c3.23853,0,5.43238,3.02889,5.43238,5.84889C44.39923,30.08,41.89198,32.48222,38.86239,32.48222"
		/>
	<path class="st0" d="M67.38236,12.84667c-1.88044,0-3.76088,0.41778-5.43238,1.14889V3.55111h-7.93963v21.93333
		c0,0.41778,0,1.35778,0,1.35778l0,0C54.2193,34.78,60.27848,40.83778,67.59129,40.83778
		c7.52175,0,13.58094-6.26667,13.58094-13.99556C81.06778,19.11333,75.00858,12.84667,67.38236,12.84667 M67.80024,32.48222
		c-3.02959,0-5.43238-2.50667-5.43238-5.43111s1.46257-5.84889,5.43238-5.84889c3.23853,0,5.43237,3.02889,5.43237,5.64
		C73.23262,30.08,70.82983,32.48222,67.80024,32.48222"/>
</g>
<g>
	<g>
		<g>
			<path class="st1" d="M297.80615,39.68889c0,1.35778-1.14917,2.29778-2.50723,2.29778c0,0-128.81003,0-131.52621,0
				c-2.29831,0-4.17876-1.67111-4.17876-4.17778c0-2.82,0-28.30444,0-28.30444c0-1.35778,0.94023-2.29778,2.29832-2.29778h133.40665
				c1.35809,0,2.29831,0.94,2.29831,2.29778L297.80615,39.68889z"/>
		</g>
		<path class="st2" d="M297.38828,40.52444H163.98164c-1.46257,0-2.61172-1.14889-2.61172-2.61111V7.62444
			c0-0.73111,0.20894-1.35778,0.73128-1.88c0.52235-0.52222,1.14917-0.73111,1.88045-0.73111l0,0h133.40663
			c0.73129,0,1.35809,0.41778,1.88043,0.73111C299.79108,6.26667,300,6.89333,300,7.62444v30.18445
			C300,39.37556,298.85083,40.52444,297.38828,40.52444z M163.98164,5.53555c-0.52234,0-0.94022,0.20889-1.35809,0.52222
			c-0.31342,0.41778-0.52235,0.83556-0.52235,1.35778V37.6c0,1.14889,0.73129,1.88,1.88045,1.88h133.40663
			c1.14917,0,1.88043-0.94,1.88043-1.88V7.41556c0-0.52222-0.20892-0.94-0.52234-1.35778
			c-0.31339-0.41778-0.73126-0.52222-1.35809-0.52222L163.98164,5.53555L163.98164,5.53555z"/>
	</g>
	<path class="st2" d="M178.18939,31.02V13.99556h4.17876v13.36889h6.58153v3.55111L178.18939,31.02L178.18939,31.02z"/>
	<path class="st2" d="M193.65077,31.02V13.99556h4.17876V31.02H193.65077z"/>
	<path class="st2" d="M212.14175,31.02c-1.35809,0-2.61172-0.20889-3.55194-0.52222c-1.14915-0.41778-2.08937-0.94-2.82066-1.67111
		c-0.73128-0.73111-1.35809-1.67111-1.88043-2.61111c-0.41788-1.14889-0.52234-2.29777-0.52234-3.76
		c0-1.35778,0.20894-2.50667,0.73128-3.55111c0.41788-1.14889,1.14915-2.08889,1.88043-2.82s1.67151-1.35778,2.82066-1.67111
		c1.14915-0.41778,2.29831-0.52222,3.55194-0.52222c1.35809,0,2.50725,0.20889,3.55194,0.52222
		c1.14915,0.41778,2.08937,0.94,2.82065,1.67111c0.73128,0.73111,1.46257,1.67111,1.88045,2.61111
		c0.41788,1.14889,0.73128,2.29778,0.73128,3.55111c0,0.52222,0,1.35778-0.20894,1.88s-0.41788,1.14889-0.52234,1.46222
		c-0.20894,0.41778-0.52235,0.94-0.73128,1.35778c-0.41788,0.41778-0.52235,0.52222-0.94023,0.94l0,0h3.55194v3.23778h-10.34241
		V31.02z M217.05179,22.35111c0-0.73111-0.20894-1.35778-0.41788-2.08889c-0.20894-0.52222-0.52235-1.14889-0.94023-1.46222
		c-0.41786-0.41778-0.94022-0.73111-1.46255-1.14889c-0.52234-0.20889-1.35809-0.41778-1.88043-0.41778
		c-0.73129,0-1.35809,0.20889-1.88045,0.41778c-0.52234,0.20889-1.14915,0.52222-1.46255,1.14889
		c-0.41788,0.41778-0.73129,0.94-0.94023,1.46222s-0.41788,1.35778-0.41788,2.08889s0.20894,1.46222,0.41788,2.08889
		c0.20894,0.52222,0.52235,1.14889,0.94023,1.67111c0.41788,0.41778,0.94022,0.73111,1.46255,1.14889
		c0.52235,0.20889,1.14915,0.41778,1.88045,0.41778c0.73128,0,1.35809-0.20889,1.88043-0.41778
		c0.52234-0.20889,1.14915-0.52222,1.46255-1.14889c0.41788-0.41778,0.73129-0.94,0.94023-1.67111
		C217.05179,23.81333,217.05179,23.08222,217.05179,22.35111z"/>
	<path class="st2" d="M240.87067,27.26c-0.41788,0.73111-0.73128,1.46222-1.46257,2.08889
		c-0.52234,0.52222-1.35809,1.14889-2.29831,1.35778c-0.94022,0.41778-1.88045,0.52222-3.0296,0.52222
		s-2.08937-0.20889-3.02959-0.52222c-0.94022-0.41778-1.67151-0.73111-2.29831-1.35778
		c-0.52235-0.52222-1.14915-1.35778-1.46257-2.08889c-0.3134-0.73111-0.52234-1.67111-0.52234-2.82v-10.5489h4.17874v10.23556
		c0,0.41778,0,0.94,0.20894,1.35778c0.20894,0.41778,0.41788,0.73111,0.52234,1.14889
		c0.20894,0.41778,0.52235,0.52222,0.94023,0.73111c0.41788,0.20889,0.94022,0.41778,1.46255,0.41778
		c0.52235,0,1.14915-0.20889,1.46257-0.41778c0.41788-0.20889,0.73128-0.41778,0.94022-0.73111
		c0.20894-0.41778,0.41788-0.73111,0.52235-1.14889c0.20892-0.41778,0.20892-0.94,0.20892-1.35778V13.89111h4.17876v10.54889
		C241.49748,25.58889,241.28854,26.52889,240.87067,27.26z"/>
	<path class="st2" d="M265.10742,22.35111c0,1.35778-0.20892,2.61111-0.73126,3.55111
		c-0.41788,1.14889-1.14917,2.08889-1.88046,2.82c-0.73126,0.73111-1.88043,1.35778-3.0296,1.88
		c-1.14914,0.41778-2.29831,0.52222-3.55193,0.52222c-1.35809,0-2.50725-0.20889-3.55194-0.52222
		c-1.14915-0.41778-2.08937-1.14889-2.82065-1.88c-0.73128-0.73111-1.46257-1.67111-1.88045-2.82s-0.73128-2.29778-0.73128-3.55111
		c0-1.35778,0.20894-2.61111,0.73128-3.55111c0.41788-1.14889,1.14915-2.08889,1.88045-2.82
		c0.73128-0.73111,1.67149-1.35778,2.82065-1.67111c1.14915-0.41778,2.29831-0.52222,3.55194-0.52222
		c1.35811,0,2.61171,0.20889,3.55193,0.52222c1.14917,0.41778,2.08939,0.94,3.0296,1.67111
		c0.73129,0.73111,1.46259,1.67111,1.88046,2.82C264.89847,19.84444,265.10742,20.99334,265.10742,22.35111z M260.71973,22.35111
		c0-0.73111-0.20892-1.46222-0.41788-2.08889c-0.20892-0.52222-0.52234-1.14889-0.94022-1.67111
		c-0.41788-0.41778-0.94022-0.73111-1.46255-1.14889c-0.52234-0.20889-1.35809-0.41778-1.88046-0.41778
		c-0.73126,0-1.35808,0.20889-1.88043,0.41778c-0.52234,0.20889-1.14915,0.52222-1.46255,1.14889
		c-0.41788,0.41778-0.73128,0.94-0.94023,1.67111c-0.20892,0.52222-0.41788,1.35778-0.41788,2.08889
		s0.20894,1.46222,0.41788,2.08889c0.20894,0.52222,0.52235,1.14889,0.94023,1.67111
		c0.41788,0.41778,0.94022,0.73111,1.46255,1.14889c0.52235,0.20889,1.35809,0.41778,1.88043,0.41778
		c0.73129,0,1.35812-0.20889,1.88046-0.41778c0.52234-0.20889,1.14914-0.52222,1.46255-1.14889
		c0.41788-0.41778,0.73129-0.94,0.94022-1.67111C260.5108,23.81333,260.71973,23.08222,260.71973,22.35111z"/>
	<path class="st2" d="M279.41965,30.81112l-3.55194-6.78889h-1.35809v6.78889h-3.96982V13.89111h6.37259
		c0.73129,0,1.67151,0,2.50726,0.20889c0.73126,0.20889,1.46255,0.41778,2.08936,0.73111
		c0.52234,0.41778,1.14917,0.94,1.46259,1.46222c0.41788,0.52222,0.52234,1.46222,0.52234,2.50667
		c0,1.14889-0.41788,2.08889-0.94022,2.82c-0.52237,0.73111-1.46259,1.35778-2.61172,1.67111l4.3877,7.20667h-4.91003
		C279.41965,30.49778,279.41965,30.81112,279.41965,30.81112z M279.41965,19.11333c0-0.41778,0-0.73111-0.20892-0.94
		c-0.20895-0.20889-0.41788-0.41778-0.52237-0.52222c-0.20892-0.20889-0.52234-0.20889-0.94022-0.20889s-0.52234,0-0.94022,0
		h-2.29831v3.96889h1.88043c0.41788,0,0.73129,0,0.94025,0c0.41788,0,0.73126-0.20889,0.94022-0.41778
		c0.41788-0.20889,0.52234-0.41778,0.73126-0.52222C279.21072,19.84444,279.41965,19.74,279.41965,19.11333z"/>
	<g>
		<path class="st3" d="M299.26871,7.41556c0-0.52222-0.20892-0.94-0.52234-1.35778
			c-0.31339-0.41778-0.73126-0.52222-1.35809-0.52222H163.98164l0,0c-0.52234,0-0.94022,0.20889-1.35809,0.52222
			c-0.41788,0.31333-0.52235,0.73111-0.52235,1.35778V37.6c0,0.52222,0.20894,0.94,0.52235,1.35778
			c0.41788,0.41778,0.73128,0.52222,1.35809,0.52222h133.61559l0,0c0.94019,0,1.88043-0.73111,1.88043-1.88L299.26871,7.41556z"/>
	</g>
	<path class="st2" d="M178.18939,31.02V13.99556h4.17876v13.36889h6.58153v3.55111L178.18939,31.02L178.18939,31.02z"/>
	<path class="st2" d="M193.65077,31.02V13.99556h4.17876V31.02H193.65077z"/>
	<path class="st2" d="M212.14175,31.02c-1.35809,0-2.61172-0.20889-3.55194-0.52222c-1.14915-0.41778-2.08937-0.94-2.82066-1.67111
		c-0.73128-0.73111-1.35809-1.67111-1.88043-2.61111c-0.41788-1.14889-0.52234-2.29777-0.52234-3.76
		c0-1.35778,0.20894-2.50667,0.73128-3.55111c0.41788-1.14889,1.14915-2.08889,1.88043-2.82s1.67151-1.35778,2.82066-1.67111
		c1.14915-0.41778,2.29831-0.52222,3.55194-0.52222c1.35809,0,2.50725,0.20889,3.55194,0.52222
		c1.14915,0.41778,2.08937,0.94,2.82065,1.67111c0.73128,0.73111,1.46257,1.67111,1.88045,2.61111
		c0.41788,1.14889,0.73128,2.29778,0.73128,3.55111c0,0.52222,0,1.35778-0.20894,1.88s-0.41788,1.14889-0.52234,1.46222
		c-0.20894,0.41778-0.52235,0.94-0.73128,1.35778c-0.41788,0.41778-0.52235,0.52222-0.94023,0.94l0,0h3.55194v3.23778h-10.34241
		V31.02z M217.05179,22.35111c0-0.73111-0.20894-1.35778-0.41788-2.08889c-0.20894-0.52222-0.52235-1.14889-0.94023-1.46222
		c-0.41786-0.41778-0.94022-0.73111-1.46255-1.14889c-0.52234-0.20889-1.35809-0.41778-1.88043-0.41778
		c-0.73129,0-1.35809,0.20889-1.88045,0.41778c-0.52234,0.20889-1.14915,0.52222-1.46255,1.14889
		c-0.41788,0.41778-0.73129,0.94-0.94023,1.46222s-0.41788,1.35778-0.41788,2.08889s0.20894,1.46222,0.41788,2.08889
		c0.20894,0.52222,0.52235,1.14889,0.94023,1.67111c0.41788,0.41778,0.94022,0.73111,1.46255,1.14889
		c0.52235,0.20889,1.14915,0.41778,1.88045,0.41778c0.73128,0,1.35809-0.20889,1.88043-0.41778
		c0.52234-0.20889,1.14915-0.52222,1.46255-1.14889c0.41788-0.41778,0.73129-0.94,0.94023-1.67111
		C217.05179,23.81333,217.05179,23.08222,217.05179,22.35111z"/>
	<path class="st2" d="M240.87067,27.26c-0.41788,0.73111-0.73128,1.46222-1.46257,2.08889
		c-0.52234,0.52222-1.35809,1.14889-2.29831,1.35778c-0.94022,0.41778-1.88045,0.52222-3.0296,0.52222
		s-2.08937-0.20889-3.02959-0.52222c-0.94022-0.41778-1.67151-0.73111-2.29831-1.35778
		c-0.52235-0.52222-1.14915-1.35778-1.46257-2.08889c-0.3134-0.73111-0.52234-1.67111-0.52234-2.82v-10.5489h4.17874v10.23556
		c0,0.41778,0,0.94,0.20894,1.35778c0.20894,0.41778,0.41788,0.73111,0.52234,1.14889
		c0.20894,0.41778,0.52235,0.52222,0.94023,0.73111c0.41788,0.20889,0.94022,0.41778,1.46255,0.41778
		c0.52235,0,1.14915-0.20889,1.46257-0.41778c0.41788-0.20889,0.73128-0.41778,0.94022-0.73111
		c0.20894-0.41778,0.41788-0.73111,0.52235-1.14889c0.20892-0.41778,0.20892-0.94,0.20892-1.35778V13.89111h4.17876v10.54889
		C241.49748,25.58889,241.28854,26.52889,240.87067,27.26z"/>
	<path class="st2" d="M265.10742,22.35111c0,1.35778-0.20892,2.61111-0.73126,3.55111
		c-0.41788,1.14889-1.14917,2.08889-1.88046,2.82c-0.73126,0.73111-1.88043,1.35778-3.0296,1.88
		c-1.14914,0.41778-2.29831,0.52222-3.55193,0.52222c-1.35809,0-2.50725-0.20889-3.55194-0.52222
		c-1.14915-0.41778-2.08937-1.14889-2.82065-1.88c-0.73128-0.73111-1.46257-1.67111-1.88045-2.82s-0.73128-2.29778-0.73128-3.55111
		c0-1.35778,0.20894-2.61111,0.73128-3.55111c0.41788-1.14889,1.14915-2.08889,1.88045-2.82
		c0.73128-0.73111,1.67149-1.35778,2.82065-1.67111c1.14915-0.41778,2.29831-0.52222,3.55194-0.52222
		c1.35811,0,2.61171,0.20889,3.55193,0.52222c1.14917,0.41778,2.08939,0.94,3.0296,1.67111
		c0.73129,0.73111,1.46259,1.67111,1.88046,2.82C264.89847,19.84444,265.10742,20.99334,265.10742,22.35111z M260.71973,22.35111
		c0-0.73111-0.20892-1.46222-0.41788-2.08889c-0.20892-0.52222-0.52234-1.14889-0.94022-1.67111
		c-0.41788-0.41778-0.94022-0.73111-1.46255-1.14889c-0.52234-0.20889-1.35809-0.41778-1.88046-0.41778
		c-0.73126,0-1.35808,0.20889-1.88043,0.41778c-0.52234,0.20889-1.14915,0.52222-1.46255,1.14889
		c-0.41788,0.41778-0.73128,0.94-0.94023,1.67111c-0.20892,0.52222-0.41788,1.35778-0.41788,2.08889
		s0.20894,1.46222,0.41788,2.08889c0.20894,0.52222,0.52235,1.14889,0.94023,1.67111
		c0.41788,0.41778,0.94022,0.73111,1.46255,1.14889c0.52235,0.20889,1.35809,0.41778,1.88043,0.41778
		c0.73129,0,1.35812-0.20889,1.88046-0.41778c0.52234-0.20889,1.14914-0.52222,1.46255-1.14889
		c0.41788-0.41778,0.73129-0.94,0.94022-1.67111C260.5108,23.81333,260.71973,23.08222,260.71973,22.35111z"/>
	<path class="st2" d="M279.41965,30.81112l-3.55194-6.78889h-1.35809v6.78889h-3.96982V13.89111h6.37259
		c0.73129,0,1.67151,0,2.50726,0.20889c0.73126,0.20889,1.46255,0.41778,2.08936,0.73111
		c0.52234,0.41778,1.14917,0.94,1.46259,1.46222c0.41788,0.52222,0.52234,1.46222,0.52234,2.50667
		c0,1.14889-0.41788,2.08889-0.94022,2.82c-0.52237,0.73111-1.46259,1.35778-2.61172,1.67111l4.3877,7.20667h-4.91003
		C279.41965,30.49778,279.41965,30.81112,279.41965,30.81112z M279.41965,19.11333c0-0.41778,0-0.73111-0.20892-0.94
		c-0.20895-0.20889-0.41788-0.41778-0.52237-0.52222c-0.20892-0.20889-0.52234-0.20889-0.94022-0.20889s-0.52234,0-0.94022,0
		h-2.29831v3.96889h1.88043c0.41788,0,0.73129,0,0.94025,0c0.41788,0,0.73126-0.20889,0.94022-0.41778
		c0.41788-0.20889,0.52234-0.41778,0.73126-0.52222C279.21072,19.84444,279.41965,19.74,279.41965,19.11333z"/>
</g>
</svg>
